<?xml version="1.0" encoding="utf-8"?>
<svg width="158.04445mm" height="158.04445mm" viewBox="0 0 560.00002 560.00001" id="svg2" version="1.1" xmlns="http://www.w3.org/2000/svg">
  <g id="layer2" style="display:inline" transform="translate(0,-492.36218)">
    <circle style="fill:#ff0000" id="path4148" cx="280" cy="772.36218" r="280"/>
  </g>
  <g id="layer1" transform="matrix(1, 0, 0, 1, 0.855089, -492.362183)">
    <g transform="translate(52.114286,658.60158)" style="font-style:normal;font-weight:normal;font-size:40px;line-height:125%;font-family:Sans;letter-spacing:0px;word-spacing:0px;fill:#000000;fill-opacity:1;stroke:none;stroke-width:1px;stroke-linecap:butt;stroke-linejoin:miter;stroke-opacity:1" id="flowRoot3336">
      <path d="m 98.64,179.1892 0,-30.42 16.74,0 q -1.44,-8.64 -5.58,-13.5 -4.14,-5.04 -12.96,-5.04 l -18.18,0 0,18.54 13.32,0 0,30.42 -88.38,0 0,-30.42 15.12,0 0,-66.960004 -15.12,0 0,-30.42 115.92,0 q 3.24,0 8.46,0.18 5.4,0.18 11.34,1.26 6.12,1.08 12.24,3.24 6.12,2.16 10.98,5.94 4.86,3.78 7.92,9.72 3.06,5.94 3.06,14.4 0,7.38 -2.7,12.6 -2.52,5.040004 -5.94,8.640004 -3.42,3.42 -6.84,5.4 -3.42,1.8 -5.04,2.52 5.04,3.78 8.1,7.56 3.06,3.6 4.86,7.56 1.98,3.96 3.06,8.46 1.26,4.5 2.34,9.9 l 13.32,0 0,30.42 -86.04,0 z m -19.98,-77.76 q 5.94,0.18 11.52,0 5.76,-0.18 10.08,-1.08 4.5,-1.080004 7.2,-3.060004 2.88,-1.98 2.88,-5.58 0,-3.6 -2.7,-5.58 -2.7,-2.16 -7.2,-3.06 -4.32,-1.08 -10.08,-1.26 -5.58,-0.18 -11.7,0 l 0,19.620004 z" style="font-style:normal;font-variant:normal;font-weight:900;font-stretch:normal;font-size:180px;font-family:EdgarNo9W01-Regular;-inkscape-font-specification:'EdgarNo9W01-Regular Heavy'" id="path4212"/>
      <path d="m 191.68594,179.1892 0,-30.42 15.12,0 0,-66.960004 -15.12,0 0,-30.42 148.5,0 2.7,52.380004 -33.66,0 -2.34,-21.960004 -40.14,0 0,17.82 30.6,0 0,30.780004 -30.6,0 0,18.36 40.68,0 2.52,-22.68 33.48,0 -1.08,53.1 -150.66,0 z" style="font-style:normal;font-variant:normal;font-weight:900;font-stretch:normal;font-size:180px;font-family:EdgarNo9W01-Regular;-inkscape-font-specification:'EdgarNo9W01-Regular Heavy'" id="path4214"/>
      <path d="m 360.64125,179.1892 0,-30.42 14.94,0 0,-66.960004 -14.94,0 0,-30.42 89.82,0 0,30.42 -14.94,0 0,66.960004 14.94,0 0,30.42 -89.82,0 z" style="font-style:normal;font-variant:normal;font-weight:900;font-stretch:normal;font-size:180px;font-family:EdgarNo9W01-Regular;-inkscape-font-specification:'EdgarNo9W01-Regular Heavy'" id="path4216"/>
    </g>
  </g>
</svg>